<?xml version="1.0" standalone="no"?>
<!DOCTYPE svg PUBLIC "-//W3C//DTD SVG 20010904//EN"
 "http://www.w3.org/TR/2001/REC-SVG-20010904/DTD/svg10.dtd">
<svg version="1.0" xmlns="http://www.w3.org/2000/svg"
 width="192.000000pt" height="192.000000pt" viewBox="0 0 192.000000 192.000000"
 preserveAspectRatio="xMidYMid meet">
<metadata>
Created by potrace 1.11, written by Peter Selinger 2001-2013
</metadata>
<g transform="translate(0.000000,192.000000) scale(0.100000,-0.100000)"
fill="#000000" stroke="none">
<path d="M160 1907 c-50 -16 -132 -102 -148 -154 -9 -33 -12 -243 -12 -898 l0
-855 863 0 c684 1 870 4 899 14 49 18 90 52 124 106 l29 45 2 785 c2 739 1
787 -16 823 -24 50 -71 100 -118 123 -36 18 -75 19 -813 21 -547 1 -785 -2
-810 -10z"/>
</g>
</svg>
